<?xml version="1.0" standalone="no"?>
<!DOCTYPE svg PUBLIC "-//W3C//DTD SVG 20010904//EN"
 "http://www.w3.org/TR/2001/REC-SVG-20010904/DTD/svg10.dtd">
<svg version="1.0" xmlns="http://www.w3.org/2000/svg"
 width="499.000000pt" height="499.000000pt" viewBox="0 0 499.000000 499.000000"
 preserveAspectRatio="xMidYMid meet">
<metadata>
Created by potrace 1.14, written by Peter Selinger 2001-2017
</metadata>
<g transform="translate(0.000000,499.000000) scale(0.100000,-0.100000)"
fill="#000000" stroke="none">
<path d="M1010 4475 c-12 -27 -28 -63 -35 -80 -16 -35 -197 -451 -265 -610
-26 -60 -93 -215 -149 -343 -55 -129 -101 -236 -101 -238 0 -2 259 -4 576 -4
457 0 575 3 571 13 -3 6 -89 206 -192 442 -162 373 -252 579 -298 689 -7 15
-28 62 -48 105 l-37 76 -22 -50z"/>
<path d="M4518 3145 c-1 -2 -28 -5 -58 -6 -202 -11 -334 -168 -295 -349 11
-54 63 -116 125 -149 30 -16 102 -43 160 -60 233 -70 271 -95 247 -164 -21
-63 -142 -80 -240 -34 -61 29 -96 66 -133 138 l-24 49 -60 0 -60 0 0 -163 0
-163 58 1 c47 0 61 4 77 23 l20 23 45 -20 c25 -11 56 -22 70 -24 14 -3 43 -9
65 -14 52 -12 176 -9 238 6 146 35 230 134 230 271 0 158 -89 234 -358 301
-71 17 -145 41 -163 52 -29 17 -33 24 -30 55 6 71 107 103 223 71 49 -13 117
-81 131 -130 l10 -34 74 0 74 0 1 147 0 148 -25 1 c-65 3 -96 -3 -112 -22 -16
-19 -17 -19 -63 1 -52 22 -78 28 -150 36 -27 3 -55 7 -62 9 -6 2 -13 2 -15 0z"/>
<path d="M397 3061 c-14 -31 -85 -193 -158 -361 -72 -168 -135 -309 -140 -314
-4 -5 -25 -10 -46 -12 -21 -1 -41 -3 -45 -3 -5 -1 -8 -28 -8 -61 l0 -60 105 0
c133 -1 308 -1 528 0 l172 0 0 60 c0 34 -4 61 -10 61 -5 1 -21 3 -35 4 -14 1
-31 3 -38 4 -15 1 -8 38 18 96 10 22 54 123 98 225 44 102 91 211 106 242 14
31 26 59 26 62 0 4 11 29 24 56 13 27 21 52 18 54 -4 2 -138 3 -299 3 l-292 0
-24 -56z"/>
<path d="M1050 3113 c0 -2 4 -11 10 -21 5 -9 69 -152 140 -317 72 -165 134
-307 139 -315 14 -25 23 -80 14 -81 -4 -1 -24 -2 -43 -3 l-35 -2 -3 -61 -3
-62 73 -3 c40 -2 221 -2 401 0 l328 3 -3 61 -3 62 -42 1 c-24 0 -47 5 -52 10
-5 6 -37 75 -71 155 -34 80 -72 168 -85 195 -12 28 -55 125 -95 216 l-72 166
-299 0 c-164 0 -299 -2 -299 -4z"/>
<path d="M2170 3054 l0 -62 33 0 c58 1 65 -2 74 -29 5 -16 9 -149 8 -297 -1
-302 1 -295 -75 -292 l-40 1 0 -62 0 -62 108 -3 c59 -2 175 -1 257 2 l150 5 0
58 c1 31 -2 57 -5 58 -3 0 -24 1 -48 3 -24 1 -48 9 -53 17 -10 15 -8 583 1
593 3 3 28 7 56 8 l49 3 -1 55 c-1 30 -2 58 -3 61 0 3 -116 6 -256 6 l-255 -1
0 -62z"/>
<path d="M2796 3111 c-1 -3 -2 -31 -2 -60 l1 -55 44 -3 c25 -1 49 -7 55 -13
16 -16 16 -566 0 -588 -7 -10 -27 -16 -53 -16 -22 -1 -41 -3 -42 -6 -6 -27 -4
-112 2 -115 10 -7 370 -7 376 -1 3 3 5 22 5 43 1 79 1 78 -43 80 -23 0 -45 7
-50 15 -5 7 -8 139 -8 293 l0 280 85 -290 c47 -159 93 -319 103 -355 l18 -65
98 -3 c54 -1 102 1 106 5 6 6 164 507 183 578 9 38 37 125 39 125 2 0 2 -126
2 -280 -1 -185 -5 -284 -12 -291 -11 -11 -34 -17 -70 -18 -21 -1 -23 -6 -23
-61 l0 -60 60 0 c33 -1 116 -1 185 -1 69 0 149 0 178 1 l53 0 2 60 c1 42 -2
60 -11 61 -55 3 -82 9 -92 23 -17 22 -15 570 2 587 7 7 31 13 55 13 l43 2 0
59 0 60 -250 0 -250 0 -76 -247 c-72 -235 -88 -280 -90 -247 -1 19 -1 19 -59
219 -28 96 -57 198 -65 226 l-15 50 -240 0 c-133 0 -242 -2 -244 -5z"/>
<path d="M4407 2103 c-76 -17 -135 -48 -176 -92 -94 -101 -98 -256 -8 -349 44
-46 82 -64 248 -116 201 -62 232 -80 232 -131 0 -52 -57 -88 -133 -86 -106 3
-207 71 -247 167 l-18 44 -62 0 -63 0 0 -159 0 -159 53 -4 c44 -3 56 0 75 20
l24 23 56 -22 c211 -79 435 -49 537 73 38 45 56 92 60 152 3 67 -19 138 -56
180 -48 55 -195 121 -319 143 -124 21 -191 61 -183 107 10 51 79 86 158 79
107 -9 175 -62 208 -164 8 -23 144 -24 149 0 3 13 2 265 -1 281 -1 3 -29 5
-63 5 -53 0 -62 -3 -71 -22 l-9 -21 -62 23 c-106 40 -231 51 -329 28z"/>
<path d="M4 2081 c-2 -2 -4 -197 -4 -433 l0 -428 1199 0 1198 0 -1 433 -1 432
-1193 0 c-656 0 -1195 -1 -1198 -4z m912 -163 c11 -18 -12 -31 -35 -18 -28 14
-61 4 -61 -19 0 -12 15 -24 45 -36 25 -9 50 -25 55 -35 38 -71 -42 -130 -128
-94 -29 12 -32 16 -22 29 9 11 17 12 30 5 25 -13 63 -13 78 2 18 18 -2 44 -48
62 -73 29 -77 102 -6 123 32 10 81 0 92 -19z m1300 0 c11 -18 -12 -31 -35 -18
-28 14 -61 4 -61 -19 0 -12 15 -24 45 -36 25 -9 50 -25 55 -35 38 -71 -42
-131 -127 -95 -30 13 -33 17 -23 30 9 11 17 12 30 5 31 -16 68 -12 80 10 11
21 0 31 -64 61 -40 19 -52 42 -41 75 13 34 67 55 108 42 15 -6 30 -14 33 -20z
m-1898 3 c27 -14 30 -56 5 -83 -15 -17 -15 -18 1 -18 19 0 35 -35 29 -61 -8
-31 -37 -47 -83 -49 -87 -3 -80 -13 -80 114 l0 114 53 -2 c28 -1 62 -8 75 -15z
m200 -61 c3 -105 8 -120 36 -120 36 0 45 19 48 110 3 77 5 85 23 85 19 0 20
-6 19 -94 -1 -89 -2 -96 -27 -117 -32 -28 -90 -26 -120 5 -17 17 -21 34 -22
108 -2 98 0 105 23 101 14 -3 17 -18 20 -78z m581 -36 c-1 -111 -2 -115 -22
-112 -19 3 -21 10 -22 103 -2 116 -1 120 25 122 18 2 19 -6 19 -113z m232 34
c18 -43 35 -78 38 -78 3 0 5 35 3 78 -3 72 -2 78 17 79 20 2 21 -3 21 -113 0
-107 -1 -114 -20 -114 -11 0 -23 0 -27 -1 -10 -1 -39 56 -76 151 -4 8 -6 -10
-6 -40 1 -115 1 -119 -21 -113 -18 5 -19 14 -19 118 l1 113 28 -2 c25 -1 32
-9 61 -78z m347 63 c-2 -11 -15 -16 -43 -16 -38 0 -40 -2 -41 -33 0 -31 1 -32
38 -32 44 0 56 -29 13 -31 -14 -1 -31 -2 -37 -3 -7 0 -13 -14 -13 -31 0 -28 3
-30 38 -31 37 -1 67 -17 50 -27 -10 -6 -47 -10 -95 -8 l-38 1 0 113 0 114 65
0 c56 0 65 -2 63 -16z m258 5 c27 -21 6 -43 -25 -26 -27 14 -61 4 -61 -19 0
-11 16 -24 43 -35 50 -22 67 -41 67 -76 0 -55 -75 -83 -138 -53 -25 12 -30 19
-21 29 8 10 16 11 29 4 25 -13 63 -13 78 2 17 17 -3 45 -43 58 -61 20 -82 73
-45 110 24 24 87 27 116 6z m-1625 -337 c16 -8 18 -13 9 -25 -7 -7 -16 -11
-21 -8 -31 18 -79 8 -79 -17 0 -5 21 -19 48 -32 75 -35 91 -79 43 -120 -32
-26 -79 -29 -121 -7 -41 22 -14 44 33 26 31 -12 60 0 65 28 3 12 -11 22 -47
37 -63 27 -81 64 -50 104 16 19 30 25 60 25 22 0 49 -5 60 -11z m283 5 c9 -3
16 -12 16 -19 0 -16 -27 -27 -35 -15 -10 16 -41 11 -59 -9 -24 -26 -24 -106 0
-132 19 -21 54 -25 70 -9 8 8 14 7 23 -3 27 -33 -54 -56 -107 -30 -66 32 -70
174 -5 212 20 12 73 14 97 5z m190 -44 l1 -45 38 0 37 -1 0 49 c0 44 2 48 23
45 21 -3 22 -7 22 -113 0 -106 -1 -110 -22 -113 -21 -3 -23 0 -23 48 l0 51
-37 -3 c-40 -3 -38 2 -42 -80 -1 -12 -9 -18 -24 -18 -22 0 -22 2 -21 113 1 61
2 113 3 115 0 2 11 2 23 0 18 -3 22 -10 22 -48z m420 19 c14 -17 26 -40 27
-52 5 -104 -23 -146 -101 -152 -75 -5 -123 105 -80 185 20 37 41 49 87 50 34
0 46 -5 67 -31z m311 7 c73 -73 24 -220 -69 -211 -52 6 -71 19 -86 64 -18 56
-8 120 25 148 36 32 98 31 130 -1z m206 -8 c0 -18 1 -62 2 -98 l2 -65 43 2
c35 1 42 -2 42 -18 0 -17 -8 -19 -65 -19 -64 0 -65 0 -66 28 -6 172 -2 202 26
202 10 0 15 -11 16 -32z"/>
<path d="M242 1901 c-5 -3 -10 -18 -10 -32 0 -23 5 -27 25 -24 31 3 45 17 38
37 -7 18 -38 29 -53 19z"/>
<path d="M237 1803 c-2 -5 -3 -19 -3 -33 1 -20 6 -25 26 -26 42 -1 57 21 37
54 -9 13 -53 17 -60 5z"/>
<path d="M1105 1556 c-26 -19 -31 -112 -8 -138 19 -21 56 -23 72 -5 25 31 17
147 -10 147 -4 0 -13 2 -21 5 -7 3 -22 -1 -33 -9z"/>
<path d="M1416 1554 c-22 -22 -25 -98 -6 -135 15 -27 63 -25 78 4 22 43 18
101 -8 127 -24 24 -43 25 -64 4z"/>
<path d="M2570 2025 l0 -61 46 -1 c25 -1 51 -6 57 -12 9 -9 12 -95 12 -296 0
-306 0 -309 -53 -311 -15 -1 -35 -2 -44 -3 -15 -1 -18 -11 -18 -61 l0 -60 258
0 257 0 2 60 2 60 -37 0 c-21 0 -47 7 -59 15 -21 15 -22 20 -23 293 0 210 3
282 12 295 8 11 28 18 56 19 23 1 43 6 44 12 0 6 2 34 3 61 l1 51 -258 0 -258
0 0 -61z"/>
<path d="M3194 2026 l1 -60 44 -3 c25 -1 49 -7 55 -13 12 -12 18 -571 6 -590
-8 -13 -30 -18 -76 -19 l-30 -1 0 -61 0 -61 340 5 c188 2 351 6 363 10 91 24
165 84 180 146 34 132 -28 243 -155 281 -23 7 -42 16 -42 20 0 3 15 11 33 18
38 14 92 63 113 104 34 65 14 168 -42 217 -65 58 -113 64 -470 66 l-320 2 0
-61z m552 -100 c27 -30 33 -96 13 -140 -15 -33 -66 -56 -122 -56 l-44 0 0 116
0 116 65 -4 c55 -4 68 -8 88 -32z m-16 -326 c43 -18 61 -53 62 -119 2 -96 -46
-141 -150 -141 l-49 0 2 138 c1 75 3 138 4 138 6 6 109 -7 131 -16z"/>
<path d="M0 963 l0 -23 2496 0 2495 0 -3 23 -3 22 -2492 0 -2493 1 0 -23z"/>
<path d="M3052 727 c-7 -8 -7 -18 -2 -27 8 -13 11 -13 25 1 14 13 14 17 2 27
-11 10 -17 9 -25 -1z"/>
<path d="M3343 733 c-18 -7 -16 -30 3 -37 21 -8 21 -8 27 8 7 17 -13 35 -30
29z"/>
<path d="M3554 725 c-3 -8 -3 -19 0 -24 9 -13 36 -2 36 14 0 19 -30 27 -36 10z"/>
<path d="M3952 727 c-15 -17 0 -39 21 -31 21 8 22 18 3 33 -10 8 -16 8 -24 -2z"/>
<path d="M724 695 c-17 -43 -72 -220 -70 -223 9 -9 36 13 36 29 0 40 100 44
106 5 3 -20 23 -38 35 -30 4 2 -9 54 -30 116 -27 81 -42 112 -55 114 -9 1 -20
-4 -22 -11z m50 -112 c7 -21 4 -23 -29 -23 -40 0 -39 -2 -12 78 l11 33 12 -33
c6 -18 14 -43 18 -55z"/>
<path d="M1124 701 c-5 -3 -9 -55 -9 -115 l0 -110 25 -1 25 -2 0 115 c0 98 -2
115 -16 117 -9 2 -20 0 -25 -4z"/>
<path d="M1219 702 c-1 -4 -3 -55 -4 -114 -2 -72 1 -108 9 -111 15 -6 97 -1
123 7 42 13 47 106 6 106 -11 0 -10 6 5 25 23 29 19 61 -11 77 -23 12 -126 20
-128 10z m100 -45 c8 -10 7 -18 -2 -31 -19 -26 -51 -17 -55 17 -3 23 0 27 21
27 14 0 30 -6 36 -13z m-5 -83 c26 -10 20 -53 -8 -60 -34 -8 -47 2 -44 37 2
29 18 36 52 23z"/>
<path d="M1438 702 c-14 -2 -18 -14 -19 -45 0 -23 -2 -53 -4 -67 -14 -112 -12
-118 34 -111 4 0 8 13 9 29 0 15 1 52 2 82 2 61 1 62 31 -52 8 -30 15 -38 33
-38 20 0 25 8 36 58 21 90 28 92 29 8 1 -89 4 -95 32 -93 19 1 20 6 14 77 -3
41 -6 92 -7 113 -1 20 -4 38 -7 38 -55 12 -63 4 -81 -85 -13 -66 -25 -61 -35
14 -9 69 -22 83 -67 72z"/>
<path d="M1687 702 c-2 -4 -3 -56 -3 -116 1 -104 2 -109 23 -112 20 -3 22 1
25 44 2 26 7 47 12 47 5 0 21 -20 36 -45 20 -34 32 -44 53 -45 15 -1 27 0 27
2 0 2 -11 21 -25 43 -30 48 -30 44 -4 80 25 33 20 73 -11 90 -23 12 -128 22
-133 12z m106 -54 c14 -22 -7 -48 -39 -48 -20 0 -24 5 -24 28 0 16 3 32 7 36
12 11 45 2 56 -16z"/>
<path d="M2195 697 c-21 -59 -65 -201 -65 -211 0 -7 11 -12 24 -12 18 0 26 7
30 27 5 24 10 28 38 26 24 -1 36 -9 44 -27 8 -15 21 -25 37 -25 l24 -2 -24 81
c-48 156 -46 150 -76 153 -15 1 -30 -3 -32 -10z m49 -129 c-7 -10 -31 -10 -38
0 -3 5 0 28 6 52 l11 43 13 -43 c7 -24 11 -47 8 -52z"/>
<path d="M2310 688 c0 -10 6 -19 13 -19 6 -1 19 -2 27 -3 12 -1 16 -21 20 -96
5 -90 6 -95 28 -96 21 -1 22 1 22 96 l0 98 25 -2 c30 -4 53 18 33 30 -7 5 -48
9 -90 10 -69 1 -78 -1 -78 -18z"/>
<path d="M2509 681 c-1 -14 -3 -35 -4 -46 -1 -11 -5 -52 -8 -91 -5 -68 -4 -71
16 -70 25 1 33 29 33 108 -1 31 2 54 5 52 4 -2 12 -33 19 -69 11 -59 15 -65
36 -65 28 0 37 19 48 93 10 65 18 53 21 -30 2 -38 3 -73 4 -80 1 -6 9 -10 19
-8 9 2 20 4 23 4 6 1 4 49 -5 136 -2 17 -4 44 -5 62 -1 32 -6 34 -62 24 -4 0
-12 -30 -19 -66 -11 -60 -25 -91 -28 -62 -1 19 -12 70 -19 92 -4 11 -7 25 -8
30 0 6 -15 10 -32 11 -29 0 -33 -3 -34 -25z"/>
<path d="M2777 596 c-19 -61 -31 -115 -27 -119 14 -15 49 3 52 26 5 36 77 31
84 -5 1 -5 2 -12 3 -16 1 -11 39 -13 46 -2 3 4 -11 57 -30 117 -34 106 -36
109 -64 109 -28 0 -30 -3 -64 -110z m81 14 c11 -43 8 -50 -21 -50 -17 0 -19 5
-13 31 3 17 6 38 6 45 0 29 18 12 28 -26z"/>
<path d="M3843 693 c-7 -3 -13 -13 -13 -24 0 -11 -7 -19 -16 -19 -9 0 -14 -6
-11 -12 2 -7 10 -12 16 -10 12 2 14 -15 11 -84 -2 -58 28 -86 74 -68 22 8 10
24 -19 24 -22 0 -23 3 -22 65 0 35 3 63 5 60 3 -2 14 1 26 7 21 12 21 12 -4
18 -13 3 -27 15 -30 26 -3 12 -11 19 -17 17z"/>
<path d="M3436 675 c4 -9 -2 -18 -17 -23 -22 -8 -22 -9 -2 -23 15 -11 19 -25
18 -67 -1 -65 16 -94 53 -90 14 2 27 9 30 16 3 9 -3 13 -19 10 -31 -4 -39 29
-30 126 1 4 8 6 16 3 8 -4 17 -2 21 4 3 6 -3 13 -15 16 -19 5 -25 15 -22 36 0
4 -8 7 -19 7 -13 0 -18 -5 -14 -15z"/>
<path d="M920 643 c-12 -8 -20 -10 -20 -4 0 6 -7 11 -15 11 -12 0 -15 -16 -15
-84 0 -80 10 -111 26 -84 4 6 8 38 8 70 1 60 12 78 47 78 21 0 26 -19 24 -92
-1 -38 3 -59 11 -62 7 -3 15 3 18 12 7 24 2 135 -7 148 -11 19 -55 22 -77 7z"/>
<path d="M3196 644 c-14 -7 -26 -9 -26 -3 0 5 -7 9 -14 9 -12 0 -15 -17 -13
-90 1 -64 6 -90 15 -90 13 0 13 1 17 70 4 76 4 78 25 85 35 11 49 -11 48 -73
-1 -76 0 -79 16 -79 11 0 14 17 12 76 -1 42 -5 81 -9 87 -11 19 -44 23 -71 8z"/>
<path d="M3678 652 c-16 -2 -28 -10 -28 -18 0 -10 7 -13 24 -8 31 7 67 -11 60
-31 -4 -9 -19 -15 -35 -15 -33 0 -69 -31 -69 -58 0 -23 30 -52 54 -52 9 0 27
5 38 11 14 8 23 8 31 0 18 -18 29 -13 22 10 -4 12 -8 48 -9 81 -2 74 -19 89
-88 80z m62 -105 c0 -16 -28 -57 -40 -57 -5 0 -16 7 -24 16 -24 23 -4 54 34
54 18 0 30 -5 30 -13z"/>
<path d="M4244 649 c-30 -11 -46 -35 -49 -76 -4 -55 18 -91 59 -98 36 -7 81 9
71 26 -4 5 -14 5 -26 -2 -16 -8 -26 -7 -45 6 -41 27 -31 45 26 45 60 0 72 16
46 65 -19 34 -49 47 -82 34z m50 -35 c27 -26 19 -39 -24 -41 -32 -1 -40 2 -40
16 0 37 37 52 64 25z"/>
<path d="M3050 559 c0 -68 3 -90 13 -87 8 3 13 33 15 91 2 73 0 87 -13 87 -12
0 -15 -16 -15 -91z"/>
<path d="M3340 560 c0 -73 3 -90 15 -90 12 0 15 17 15 90 0 73 -3 90 -15 90
-12 0 -15 -17 -15 -90z"/>
<path d="M3553 568 c2 -46 6 -84 10 -85 20 -7 23 3 22 79 0 69 -3 83 -17 86
-14 3 -16 -7 -15 -80z"/>
<path d="M3950 559 c0 -68 3 -90 13 -87 8 3 13 33 15 91 2 73 0 87 -13 87 -12
0 -15 -16 -15 -91z"/>
<path d="M4022 638 c36 -131 66 -185 89 -161 7 8 59 153 59 166 0 4 -7 7 -15
7 -9 0 -22 -26 -36 -72 l-22 -73 -22 70 c-15 46 -29 71 -40 73 -10 2 -15 -1
-13 -10z"/>
<path d="M1944 599 c-11 -19 12 -30 56 -27 32 2 44 8 46 21 2 14 -6 17 -46 17
-27 0 -52 -5 -56 -11z"/>
</g>
</svg>
