<?xml version="1.0" encoding="UTF-8"?>
<svg xmlns="http://www.w3.org/2000/svg" id="Outline" viewBox="0 0 512 512" width="512" height="512"><path d="M112.108,182.356a8,8,0,0,0,1.62,6.282L128,206.663V312A40.068,40.068,0,0,0,160,351.2V432a8,8,0,0,0,8,8h48v16a8,8,0,0,0-8,8v40a8,8,0,0,0,8,8H400a8,8,0,0,0,8-8V464a8,8,0,0,0-8-8V432.663l15.892-95.348a8,8,0,0,0-1.62-6.281L400,313.008V208a40.068,40.068,0,0,0-32-39.195V88a8,8,0,0,0-8-8H312V64a8,8,0,0,0,8-8V16a8,8,0,0,0-8-8H128a8,8,0,0,0-8,8V56a8,8,0,0,0,8,8V87.009ZM160,334.624A24.039,24.039,0,0,1,144,312V226.87l16,20.208ZM176,424V368.518A64.107,64.107,0,0,1,231.482,424Zm56-184a8,8,0,0,0-8,8v8h-8c-.1,0-.2.011-.294.015a25.07,25.07,0,0,0,.327-16.7l-7.137-21.66a72.012,72.012,0,0,1,125.185,29.775,25.066,25.066,0,0,0-18.106,9.633A7.956,7.956,0,0,0,312,256h-9.376A24,24,0,0,0,256,264a8,8,0,0,1-16,0V248A8,8,0,0,0,232,240Zm91.171-41.138a88.035,88.035,0,0,0-119.975,1.5l-8.4-25.5A72.116,72.116,0,0,0,256,103.672V96h24.4A80.14,80.14,0,0,0,352,167.6v85.648q-.37-.312-.75-.608A87.781,87.781,0,0,0,323.171,198.862ZM203.747,269.5a25.385,25.385,0,0,0,4.616-3.107A8,8,0,0,0,216,272h9.376A24,24,0,0,0,272,264a8,8,0,0,1,16,0v16a8,8,0,0,0,16,0v-8h6.707a25.253,25.253,0,0,0,1.26,8.356l9.085,27.571A71.993,71.993,0,0,1,192.5,272.311,25.018,25.018,0,0,0,203.747,269.5ZM264,352a87.912,87.912,0,0,0,62.869-26.424l6.337,19.231A72.117,72.117,0,0,0,272,416v8H247.6A80.14,80.14,0,0,0,176,352.4V266.438l.036.03A88.1,88.1,0,0,0,264,352ZM392,496H224V472H392ZM368,185.376A24.039,24.039,0,0,1,384,208v84.8l-16-20.207Zm31.525,152.809-15.417,92.5A8.054,8.054,0,0,0,384,432v24H232V440h48a8,8,0,0,0,8-8V416a56.063,56.063,0,0,1,56-56,8,8,0,0,0,7.6-10.5l-24.435-74.147a9.142,9.142,0,0,1,15.85-8.537ZM352,96v55.482A64.107,64.107,0,0,1,296.518,96ZM136,24H304V48H136Zm7.892,64.986A8.054,8.054,0,0,0,144,87.671V64H296V79.671H248a8,8,0,0,0-8,8v16a56.063,56.063,0,0,1-56,56,8,8,0,0,0-7.6,10.5l24.435,74.148a9.142,9.142,0,0,1-15.85,8.537l-56.512-71.373Z"/></svg>
